<svg width="121" height="47" viewBox="0 0 121 47" fill="none" xmlns="http://www.w3.org/2000/svg">
<path d="M28.4678 14.021C28.0134 13.9655 27.6378 14.2321 27.2312 14.5555C26.0667 15.4788 24.72 17.6732 24.72 17.6732L21.05 12.7043V34.4677H29.7345V15.2177C29.6589 15.0377 29.2378 14.1143 28.4678 14.021Z" fill="#070095"/>
<path d="M34.4979 17.8607C35.9657 16.1196 37.9924 15.2485 40.5801 15.2485C43.1679 15.2485 45.3435 16.1696 46.8124 18.0096V7.85962H54.7601V34.4652H47.4468C47.1979 33.893 47.0113 33.1218 46.8868 32.1518C45.3946 34.0674 43.2913 35.0252 40.5801 35.0252C37.869 35.0252 35.959 34.1485 34.479 32.3941C32.999 30.6396 32.259 28.2207 32.259 25.1363C32.259 22.0518 33.0057 19.6263 34.4979 17.8596V17.8607ZM39.9457 25.1374C39.9457 26.4807 40.2624 27.5252 40.8968 28.2718C41.5313 29.0185 42.4201 29.3907 43.5646 29.3907C44.2857 29.3907 44.939 29.2107 45.5235 28.8496C46.1079 28.4896 46.5368 27.9852 46.8113 27.3385V22.8974C46.5368 22.2763 46.1079 21.7785 45.5235 21.4052C44.939 21.0318 44.2601 20.8452 43.4901 20.8452C42.3957 20.8452 41.5313 21.2252 40.8968 21.983C40.2624 22.7418 39.9457 23.793 39.9457 25.1363V25.1374Z" fill="#070095"/>
<path d="M60.2834 17.8227C62.1734 16.0816 64.7234 15.2104 67.9334 15.2104C71.1434 15.2104 73.5923 16.0749 75.359 17.8038C77.1257 19.5327 78.009 21.8282 78.009 24.6882C78.009 25.6093 77.9346 26.2927 77.7846 26.7404H65.0223C65.3457 28.756 67.1123 29.7627 70.3212 29.7627C72.6346 29.7627 74.7734 29.2405 76.739 28.1949L76.9257 33.5304C74.8601 34.5004 72.199 34.986 68.9401 34.986C65.2579 34.986 62.4223 34.0971 60.4323 32.3182C58.4412 30.5404 57.4468 28.1204 57.4468 25.0604C57.4468 22.0004 58.3923 19.5882 60.2823 17.8216L60.2834 17.8227ZM64.9846 23.6071H70.8434C70.7934 22.5616 70.5012 21.7416 69.9668 21.1438C69.4312 20.5471 68.7668 20.2482 67.9701 20.2482C67.1734 20.2482 66.5457 20.5227 66.0112 21.0693C65.4757 21.6171 65.1346 22.4627 64.9846 23.6071Z" fill="#070095"/>
<path d="M81.03 24.1294C82.3234 23.035 84.1145 22.4872 86.4034 22.4872C88.6923 22.4872 90.67 23.0838 92.1123 24.2783V23.1961C92.1123 22.3005 91.6023 21.6227 90.5823 21.1627C89.5623 20.7027 88.3556 20.4727 86.9623 20.4727C84.9712 20.4727 82.9701 20.9205 80.9545 21.8161L81.0667 16.555C83.38 15.685 85.8923 15.2483 88.6045 15.2483C90.7189 15.2483 92.5912 15.4661 94.22 15.9016C95.8489 16.3372 97.2112 17.1083 98.3056 18.215C99.4 19.3227 99.9478 20.7094 99.9478 22.3761V34.4661H93.1934C92.7956 33.9938 92.5223 33.4961 92.3723 32.9738C91.0534 34.3427 89.1012 35.0261 86.5134 35.0261C84.1745 35.0261 82.3467 34.4661 81.0278 33.3472C79.7089 32.2283 79.05 30.6983 79.05 28.7572C79.05 26.8161 79.7089 25.2494 81.0278 24.1305L81.03 24.1294ZM89.6878 30.6972C90.8323 30.6972 91.64 30.3616 92.1134 29.6894V27.2638C91.6901 26.5916 90.8823 26.2561 89.6878 26.2561C87.8967 26.2561 87.0012 27.0027 87.0012 28.495C87.0012 29.9872 87.8967 30.6961 89.6878 30.6961V30.6972Z" fill="#070095"/>
<path d="M21.051 8.37036V10.7637C24.6255 11.6415 27.5532 13.0337 28.3932 13.6337C28.7399 13.8792 29.4066 14.3559 29.7355 15.1659V8.37036H21.051Z" fill="#28BDE1"/>
</svg>
